<svg xmlns="http://www.w3.org/2000/svg">
  <symbol id="icon-magnifying-glass" viewBox="0 0 46 46">
    <title>Search Site</title>
    <circle fill="none" stroke-width="2" stroke-miterlimit="10" cx="19.3" cy="19.9" r="16.9"/>
    <line fill="none" stroke-width="2" stroke-linecap="round" stroke-miterlimit="10" x1="31.2" y1="31.8" x2="43.6" y2="43"/>
  </symbol>
  <symbol id="icon-new-msg" viewBox="0 0 33 28">
    <title>Create New Message</title>
    <path fill="none" stroke-linecap="round" stroke-linejoin="round" stroke-miterlimit="10" d="M16.5,17h-0.6
    l-5.2,4.8V17H10c-4.6,0-8.4-3.5-8.4-7.7C1.6,5,5.4,1.5,10,1.5h10.4c4.6,0,8.4,3.5,8.4,7.7c0,1.1-0.2,2.1-0.7,3"/>
    <g>
      <ellipse fill="none" stroke-miterlimit="10" cx="24.9" cy="20.5" rx="6.5" ry="6"/>
      <line fill="none" stroke-linecap="round" stroke-linejoin="round" stroke-miterlimit="10" x1="24.9" y1="17.6" x2="24.9" y2="23.5"/>
      <line fill="none" stroke-linecap="round" stroke-linejoin="round" stroke-miterlimit="10" x1="28.1" y1="20.5" x2="21.7" y2="20.5"/>
    </g>
  </symbol>
  <symbol id="icon-logo" viewBox="0 0 27.7 25.5">
    <path fill="none" stroke-linecap="round" stroke-linejoin="round" stroke-miterlimit="10" d="M16.7,0.7H5.3
      c-2.5,0-4.6,2-4.6,4.6v4.6c0,2.5,2,4.6,4.6,4.6H7V19l4.6-4.6h5.1c2.5,0,4.6-2,4.6-4.6V5.3C21.3,2.8,19.2,0.7,16.7,0.7z"/>
    <path fill="none" stroke-linecap="round" stroke-linejoin="round" stroke-miterlimit="10" d="M13.3,18.5
      c0,1.6,1.3,2.9,2.9,2.9H19l3.4,3.4v-3.4h1.7c1.6,0,2.9-1.3,2.9-2.9v-2.3c0-1.6-1.3-2.9-2.9-2.9"/>
  </symbol>

  <symbol id="icon-video" viewBox="0 0 18 13">
    <path fill="none" stroke-miterlimit="10" d="M12.9,11.3c0,0.7-0.3,1.2-0.8,1.2H1.3c-0.4,0-0.8-0.5-0.8-1.2V1.7
    c0-0.7,0.3-1.2,0.8-1.2h10.8c0.4,0,0.8,0.5,0.8,1.2V11.3z"/>
    <line fill="none" stroke-linecap="round" stroke-miterlimit="10" x1="2.8" y1="4.1" x2="10.5" y2="4.1"/>
    <path fill="none" stroke-linecap="round" stroke-linejoin="round" stroke-miterlimit="10" d="M12.9,8.3l3.9,2.5
      c0.4,0.3,0.7-0.1,0.7-0.7V2.9c0-0.7-0.3-1-0.7-0.7l-3.9,2.5"/>
  </symbol>
  <symbol id="icon-photo" viewBox="0 0 18 13">
    <circle fill="none" stroke-miterlimit="10" cx="9" cy="7" r="2.7"/>
    <path fill="none" stroke-linecap="round" stroke-linejoin="round" stroke-miterlimit="10" d="M12.8,2.5H16
      c0.8,0,1.5,0.8,1.5,1.7V11c0,0.8-0.7,1.5-1.5,1.5H2c-0.8,0-1.5-0.7-1.5-1.5V4.2c0-0.8,0.7-1.7,1.5-1.7h3.2"/>
    <polyline fill="none" stroke-linecap="round" stroke-linejoin="round" stroke-miterlimit="10" points="5.2,2.5
      7.4,0.5 10.6,0.5 12.8,2.5 "/>
  </symbol>

  <symbol id="icon-grid" viewBox="0 0 1024 1024">
    <title>grid</title>
    <path class="path1" d="M256 480h224v-224h-224v224zM544 256v224h224v-224h-224zM544 768h224v-224h-224v224zM256 768h224v-224h-224v224z"></path>
  </symbol>
  <symbol id="icon-list" viewBox="0 0 1024 1024">
    <title>list</title>
    <path class="path1" d="M64 192h896v92h-896zM64 448h896v92h-896zM64 704h896v92h-896z"></path>
  </symbol>

  <symbol id="icon-reply" viewBox="0 0 13 13">
    <path fill="none" stroke-linejoin="round" stroke-miterlimit="10" d="M5.4,3.7c0,0,7.1-1.2,7.1,8.8
      c-2.3-6-7.1-4-7.1-4v3.2L0.5,6.1l4.9-5.6V3.7z"/>
  </symbol>
  <symbol id="icon-heart" viewBox="0 0 13 13">
    <path fill="none" stroke-linejoin="round" stroke-miterlimit="10" d="M6.5,12.5c0,0,6-4.5,6-8.7
      c0-4.2-5.3-4.5-6-0.3c-0.7-4.2-6-3.9-6,0.6S6.5,12.5,6.5,12.5z"/>
  </symbol>


  <symbol id="icon-name" viewBox="0 0 16 16">
    <path fill="none" stroke-miterlimit="10" d="M6,8.8v2l-4,1.3c-0.9,0.3-1.6,1.1-1.6,2.1v1.4h15v-1.4
      c0-0.9-0.6-1.8-1.6-2.1l-4-1.3V8.6"/>
    <ellipse fill="none" stroke-miterlimit="10" cx="7.9" cy="4.9" rx="3.9" ry="4.4"/>
    <path fill="none" stroke-miterlimit="10" d="M11.8,4.5c-0.1,0-0.2,0-0.4,0c-1.3,0.2-2.2-0.2-2.9-1.4
      c-0.4,0.8-1.8,1.4-3,1.4C5,4.5,4.5,4.4,4,4.2"/>
  </symbol>
  <symbol id="icon-email" viewBox="0 0 17 13">
    <path fill="none" stroke-linecap="round" stroke-linejoin="round" stroke-miterlimit="10" d="M16.5,11.2
      c0,0.7-0.5,1.3-1.1,1.3H1.6c-0.6,0-1.1-0.6-1.1-1.3V1.8c0-0.7,0.5-1.3,1.1-1.3h13.7c0.6,0,1.1,0.6,1.1,1.3V11.2z"/>
    <polyline fill="none" stroke-linecap="round" stroke-linejoin="round" stroke-miterlimit="10" points="16.1,0.9
      8.5,7.8 0.9,0.9   "/>
  </symbol>
  <symbol id="icon-lock" viewBox="0 0 1024 1024">
    <path class="path1" d="M800 416v-128c0-159.072-128.928-288-288-288s-288 128.928-288 288v128c-53.024 0-96 42.976-96 96v224c0 159.072 128.928 288 288 288h192c159.072 0 288-128.928 288-288v-224c0-53.056-43.008-96-96-96zM288 288c0-123.712 100.288-224 224-224s224 100.288 224 224v128h-64v-127.936c0-88.384-71.616-160-160-160s-160 71.616-160 160v127.936h-64v-128zM640 288v128h-256v-128c0-70.688 57.312-128 128-128s128 57.312 128 128zM832 608v128c0 123.488-100.512 224-224 224h-192c-123.488 0-224-100.512-224-224v-224c0-17.664 14.336-32 32-32 21.344 0 42.656 0 64 0h448c21.312 0 42.624 0 64 0 17.632 0 32 14.336 32 32v96zM512 608c35.328 0 64 28.64 64 64 0 19.488-10.496 56.576-21.312 85.824-8.736 23.616-17.664 42.112-42.688 42.112-23.008 0-33.952-18.688-42.656-42.432-10.688-29.184-21.344-66.080-21.344-85.504 0-35.36 28.672-64 64-64z"></path>
  </symbol>
</svg>
