<svg xmlns="http://www.w3.org/2000/svg">
  <symbol id="icon-magnifying-glass" viewBox="0 0 46 46">
    <title>Search Site</title>
    <circle fill="none" stroke-width="2" stroke-miterlimit="10" cx="19.3" cy="19.9" r="16.9"/>
    <line fill="none" stroke-width="2" stroke-linecap="round" stroke-miterlimit="10" x1="31.2" y1="31.8" x2="43.6" y2="43"/>
  </symbol>
  <symbol id="icon-new-msg" viewBox="0 0 33 28">
    <title>Create New Message</title>
    <path fill="none" stroke-linecap="round" stroke-linejoin="round" stroke-miterlimit="10" d="M16.5,17h-0.6
    l-5.2,4.8V17H10c-4.6,0-8.4-3.5-8.4-7.7C1.6,5,5.4,1.5,10,1.5h10.4c4.6,0,8.4,3.5,8.4,7.7c0,1.1-0.2,2.1-0.7,3"/>
    <g>
      <ellipse fill="none" stroke-miterlimit="10" cx="24.9" cy="20.5" rx="6.5" ry="6"/>
      <line fill="none" stroke-linecap="round" stroke-linejoin="round" stroke-miterlimit="10" x1="24.9" y1="17.6" x2="24.9" y2="23.5"/>
      <line fill="none" stroke-linecap="round" stroke-linejoin="round" stroke-miterlimit="10" x1="28.1" y1="20.5" x2="21.7" y2="20.5"/>
    </g>
  </symbol>
  <symbol id="icon-logo" viewBox="0 0 27.7 25.5">
    <title></title>
    <path fill="none" stroke-linecap="round" stroke-linejoin="round" stroke-miterlimit="10" d="M16.7,0.7H5.3
      c-2.5,0-4.6,2-4.6,4.6v4.6c0,2.5,2,4.6,4.6,4.6H7V19l4.6-4.6h5.1c2.5,0,4.6-2,4.6-4.6V5.3C21.3,2.8,19.2,0.7,16.7,0.7z"/>
    <path fill="none" stroke-linecap="round" stroke-linejoin="round" stroke-miterlimit="10" d="M13.3,18.5
      c0,1.6,1.3,2.9,2.9,2.9H19l3.4,3.4v-3.4h1.7c1.6,0,2.9-1.3,2.9-2.9v-2.3c0-1.6-1.3-2.9-2.9-2.9"/>
  </symbol>

  <symbol id="icon-video" viewBox="0 0 18 13">
    <title></title>
    <path fill="none" stroke-miterlimit="10" d="M12.9,11.3c0,0.7-0.3,1.2-0.8,1.2H1.3c-0.4,0-0.8-0.5-0.8-1.2V1.7
    c0-0.7,0.3-1.2,0.8-1.2h10.8c0.4,0,0.8,0.5,0.8,1.2V11.3z"/>
    <line fill="none" stroke-linecap="round" stroke-miterlimit="10" x1="2.8" y1="4.1" x2="10.5" y2="4.1"/>
    <path fill="none" stroke-linecap="round" stroke-linejoin="round" stroke-miterlimit="10" d="M12.9,8.3l3.9,2.5
      c0.4,0.3,0.7-0.1,0.7-0.7V2.9c0-0.7-0.3-1-0.7-0.7l-3.9,2.5"/>
  </symbol>
  <symbol id="icon-photo" viewBox="0 0 18 13">
    <title></title>
    <circle fill="none" stroke-miterlimit="10" cx="9" cy="7" r="2.7"/>
    <path fill="none" stroke-linecap="round" stroke-linejoin="round" stroke-miterlimit="10" d="M12.8,2.5H16
      c0.8,0,1.5,0.8,1.5,1.7V11c0,0.8-0.7,1.5-1.5,1.5H2c-0.8,0-1.5-0.7-1.5-1.5V4.2c0-0.8,0.7-1.7,1.5-1.7h3.2"/>
    <polyline fill="none" stroke-linecap="round" stroke-linejoin="round" stroke-miterlimit="10" points="5.2,2.5
      7.4,0.5 10.6,0.5 12.8,2.5 "/>
  </symbol>

  <symbol id="icon-grid" viewBox="0 0 1024 1024">
    <title>grid</title>
    <path class="path1" d="M256 480h224v-224h-224v224zM544 256v224h224v-224h-224zM544 768h224v-224h-224v224zM256 768h224v-224h-224v224z"></path>
  </symbol>
  <symbol id="icon-list" viewBox="0 0 1024 1024">
    <title>list</title>
    <path class="path1" d="M64 192h896v92h-896zM64 448h896v92h-896zM64 704h896v92h-896z"></path>
  </symbol>

  <symbol id="icon-reply" viewBox="0 0 13 13">
    <title></title>
    <path fill="none" stroke-linejoin="round" stroke-miterlimit="10" d="M5.4,3.7c0,0,7.1-1.2,7.1,8.8
      c-2.3-6-7.1-4-7.1-4v3.2L0.5,6.1l4.9-5.6V3.7z"/>
  </symbol>
  <symbol id="icon-heart" viewBox="0 0 13 13">
    <title></title>
    <path fill="none" stroke-linejoin="round" stroke-miterlimit="10" d="M6.5,12.5c0,0,6-4.5,6-8.7
      c0-4.2-5.3-4.5-6-0.3c-0.7-4.2-6-3.9-6,0.6S6.5,12.5,6.5,12.5z"/>
  </symbol>

</svg>
