<svg xmlns="http://www.w3.org/2000/svg">
  <symbol id="icon-magnifying-glass" viewBox="0 0 46 46">
    <title>Search Site</title>
    <circle fill="none" stroke-width="2" stroke-miterlimit="10" cx="19.3" cy="19.9" r="16.9"/>
    <line fill="none" stroke-width="2" stroke-linecap="round" stroke-miterlimit="10" x1="31.2" y1="31.8" x2="43.6" y2="43"/>
  </symbol>
  <symbol id="icon-new-msg" viewBox="0 0 33 28">
    <title>Create New Message</title>
    <path fill="none" stroke-linecap="round" stroke-linejoin="round" stroke-miterlimit="10" d="M16.5,17h-0.6
    l-5.2,4.8V17H10c-4.6,0-8.4-3.5-8.4-7.7C1.6,5,5.4,1.5,10,1.5h10.4c4.6,0,8.4,3.5,8.4,7.7c0,1.1-0.2,2.1-0.7,3"/>
    <g>
      <ellipse fill="none" stroke-miterlimit="10" cx="24.9" cy="20.5" rx="6.5" ry="6"/>
      <line fill="none" stroke-linecap="round" stroke-linejoin="round" stroke-miterlimit="10" x1="24.9" y1="17.6" x2="24.9" y2="23.5"/>
      <line fill="none" stroke-linecap="round" stroke-linejoin="round" stroke-miterlimit="10" x1="28.1" y1="20.5" x2="21.7" y2="20.5"/>
    </g>
  </symbol>
  <symbol id="icon-logo" viewBox="0 0 27.7 25.5">
    <title></title>
    <path fill="none" stroke-linecap="round" stroke-linejoin="round" stroke-miterlimit="10" d="M16.7,0.7H5.3
      c-2.5,0-4.6,2-4.6,4.6v4.6c0,2.5,2,4.6,4.6,4.6H7V19l4.6-4.6h5.1c2.5,0,4.6-2,4.6-4.6V5.3C21.3,2.8,19.2,0.7,16.7,0.7z"/>
    <path fill="none" stroke-linecap="round" stroke-linejoin="round" stroke-miterlimit="10" d="M13.3,18.5
      c0,1.6,1.3,2.9,2.9,2.9H19l3.4,3.4v-3.4h1.7c1.6,0,2.9-1.3,2.9-2.9v-2.3c0-1.6-1.3-2.9-2.9-2.9"/>
  </symbol>
</svg>
